<svg xmlns="http://www.w3.org/2000/svg" xmlns:xlink="http://www.w3.org/1999/xlink" width="295" height="36" viewBox="0 0 295 36">
    <defs>
        <path id="prefix__a" d="M0 36L295 36 295 0 0 0z"/>
    </defs>
    <g fill="none" fill-rule="evenodd">
        <path fill="#FFF" d="M0 0L0 35 2.704 35 2.704 17.813 16.498 17.813 16.498 15.558 2.704 15.558 2.704 2.255 18 2.255 18 0zM42.563 33.488c4.353 0 8.026-1.495 11.02-4.484 2.993-2.99 4.49-6.653 4.49-10.991 0-4.355-1.497-8.027-4.49-11.016-2.994-2.99-6.667-4.485-11.02-4.485-4.37 0-8.069 1.495-11.095 4.485-3.028 2.989-4.541 6.661-4.541 11.016 0 4.338 1.513 8.001 4.54 10.99 3.027 2.99 6.726 4.485 11.096 4.485M42.463 0c5.17 0 9.552 1.746 13.146 5.238C59.203 8.73 61 12.988 61 18.013c0 5.008-1.797 9.257-5.391 12.75C52.015 34.253 47.632 36 42.462 36c-5.153 0-9.518-1.746-13.096-5.238C25.79 27.27 24 23.021 24 18.012c0-5.024 1.789-9.282 5.366-12.774C32.944 1.746 37.31 0 42.462 0M97.32 1H100v18.848c0 5.162-1.348 9.144-4.044 11.947C93.261 34.6 89.771 36 85.488 36c-4.267 0-7.749-1.385-10.444-4.155C72.348 29.075 71 25.282 71 20.467V1h2.704v19.368c0 4.122 1.095 7.346 3.287 9.67 2.191 2.326 5.023 3.488 8.497 3.488 3.506 0 6.354-1.174 8.546-3.524 2.191-2.35 3.287-5.685 3.287-10.005V1zM113.657 2.255v13.704h5.706c2.903 0 5.12-.597 6.654-1.791 1.533-1.194 2.3-2.885 2.3-5.073 0-2.155-.78-3.834-2.337-5.036-1.558-1.203-3.796-1.804-6.715-1.804h-5.608zM111 0h8.806c3.69 0 6.51.814 8.462 2.443 1.951 1.628 2.927 3.83 2.927 6.601 0 4.043-2.181 6.882-6.543 8.519 1.131.55 2.656 2.33 4.575 5.336L137 35h-3.145l-5.986-9.592c-2-3.208-3.557-5.21-4.671-6.003-1.115-.794-2.747-1.191-4.894-1.191h-4.647V35H111V0zM194 0L194 35 191.811 35 165.659 4.41 165.659 35 163 35 163 0 165.253 0 191.341 30.591 191.341 0z"/>
        <mask id="prefix__b" fill="#fff">
            <use xlink:href="#prefix__a"/>
        </mask>
        <path fill="#FFF" d="M210 35L213 35 213 0 210 0zM260 0L260 35 257.811 35 231.659 4.41 231.659 35 229 35 229 0 231.253 0 257.341 30.591 257.341 0zM294.609 0L294.609 2.255 278.637 2.255 278.637 16.26 294.194 16.26 294.194 18.54 278.637 18.54 278.637 32.745 295 32.745 295 35 276 35 276 0zM39.125 17.836v-5.828l-4.735 5.828h4.735zm1-7.836v7.836H42v.831h-1.875V24h-1v-5.333H33v-.336L39.75 10h.375zM49.94 16.305c.02-.209.03-.41.03-.606 0-1.172-.271-2.089-.812-2.75-.541-.66-1.301-.992-2.28-.992-.803 0-1.482.266-2.036.797-.554.53-.831 1.193-.831 1.988 0 .807.267 1.483.802 2.027.534.544 1.204.816 2.007.816 1.14 0 2.18-.427 3.12-1.28M45.226 25l-.554-.733c2.994-2.169 4.692-4.419 5.094-6.75-1.057.683-2.052 1.025-2.985 1.025-1.069 0-1.966-.36-2.692-1.08C43.363 16.744 43 15.857 43 14.8c0-1.107.358-2.017 1.074-2.73.716-.714 1.632-1.07 2.746-1.07 1.29 0 2.309.427 3.057 1.28.749.853 1.123 2.019 1.123 3.497 0 3.394-1.925 6.468-5.774 9.223" mask="url(#prefix__b)"/>
    </g>
</svg>